<mxfile host="app.diagrams.net" modified="2022-11-05T05:58:21.950Z" agent="5.0 (Windows NT 10.0; Win64; x64) AppleWebKit/537.36 (KHTML, like Gecko) Chrome/107.0.0.0 Safari/537.36" etag="OiQB_Aiy5_RFe6c13dzH" version="20.5.1" type="github">
  <diagram id="YcAfliNegvFY4161zK-Y" name="Page-1">
    <mxGraphModel dx="942" dy="535" grid="1" gridSize="10" guides="1" tooltips="1" connect="1" arrows="1" fold="1" page="1" pageScale="1" pageWidth="850" pageHeight="1100" math="0" shadow="0">
      <root>
        <mxCell id="0" />
        <mxCell id="1" parent="0" />
        <mxCell id="Rpb0mkU19RhlqtREXSFb-1" value="" style="endArrow=classic;html=1;rounded=0;fontSize=19;strokeWidth=20;" edge="1" parent="1">
          <mxGeometry width="50" height="50" relative="1" as="geometry">
            <mxPoint x="130" y="240" as="sourcePoint" />
            <mxPoint x="530" y="240" as="targetPoint" />
          </mxGeometry>
        </mxCell>
        <mxCell id="Rpb0mkU19RhlqtREXSFb-2" value="Integración" style="text;html=1;strokeColor=none;fillColor=none;align=center;verticalAlign=middle;whiteSpace=wrap;rounded=0;fontSize=28;" vertex="1" parent="1">
          <mxGeometry x="530" y="216" width="160" height="50" as="geometry" />
        </mxCell>
        <mxCell id="Rpb0mkU19RhlqtREXSFb-3" value="" style="endArrow=none;html=1;rounded=0;fontSize=28;strokeWidth=5;" edge="1" parent="1">
          <mxGeometry width="50" height="50" relative="1" as="geometry">
            <mxPoint x="160" y="120" as="sourcePoint" />
            <mxPoint x="240" y="240" as="targetPoint" />
          </mxGeometry>
        </mxCell>
        <mxCell id="Rpb0mkU19RhlqtREXSFb-4" value="Intervalo" style="text;html=1;strokeColor=none;fillColor=none;align=center;verticalAlign=middle;whiteSpace=wrap;rounded=0;fontSize=28;" vertex="1" parent="1">
          <mxGeometry x="90" y="80" width="120" height="40" as="geometry" />
        </mxCell>
        <mxCell id="Rpb0mkU19RhlqtREXSFb-5" value="" style="endArrow=none;html=1;rounded=0;fontSize=19;strokeWidth=5;" edge="1" parent="1">
          <mxGeometry width="50" height="50" relative="1" as="geometry">
            <mxPoint x="160" y="360" as="sourcePoint" />
            <mxPoint x="240" y="240" as="targetPoint" />
          </mxGeometry>
        </mxCell>
        <mxCell id="Rpb0mkU19RhlqtREXSFb-6" value="Realizar las iteraciones" style="text;html=1;strokeColor=none;fillColor=none;align=center;verticalAlign=middle;whiteSpace=wrap;rounded=0;fontSize=28;" vertex="1" parent="1">
          <mxGeometry x="50" y="370" width="200" height="40" as="geometry" />
        </mxCell>
        <mxCell id="Rpb0mkU19RhlqtREXSFb-7" value="Calcular f(x)" style="text;html=1;strokeColor=none;fillColor=none;align=center;verticalAlign=middle;whiteSpace=wrap;rounded=0;fontSize=28;" vertex="1" parent="1">
          <mxGeometry x="250" y="80" width="200" height="40" as="geometry" />
        </mxCell>
        <mxCell id="Rpb0mkU19RhlqtREXSFb-8" value="" style="endArrow=none;html=1;rounded=0;fontSize=28;strokeWidth=5;" edge="1" parent="1">
          <mxGeometry width="50" height="50" relative="1" as="geometry">
            <mxPoint x="320" y="120" as="sourcePoint" />
            <mxPoint x="400" y="240" as="targetPoint" />
          </mxGeometry>
        </mxCell>
        <mxCell id="Rpb0mkU19RhlqtREXSFb-9" value="" style="endArrow=none;html=1;rounded=0;fontSize=19;strokeWidth=5;" edge="1" parent="1">
          <mxGeometry width="50" height="50" relative="1" as="geometry">
            <mxPoint x="320" y="370" as="sourcePoint" />
            <mxPoint x="400" y="250" as="targetPoint" />
          </mxGeometry>
        </mxCell>
        <mxCell id="Rpb0mkU19RhlqtREXSFb-10" value="Hacer un método" style="text;html=1;strokeColor=none;fillColor=none;align=center;verticalAlign=middle;whiteSpace=wrap;rounded=0;fontSize=28;" vertex="1" parent="1">
          <mxGeometry x="260" y="390" width="200" height="40" as="geometry" />
        </mxCell>
        <mxCell id="Rpb0mkU19RhlqtREXSFb-11" value="" style="endArrow=none;html=1;rounded=0;strokeWidth=5;fontSize=19;" edge="1" parent="1">
          <mxGeometry width="50" height="50" relative="1" as="geometry">
            <mxPoint x="315" y="290" as="sourcePoint" />
            <mxPoint x="385" y="270" as="targetPoint" />
          </mxGeometry>
        </mxCell>
        <mxCell id="Rpb0mkU19RhlqtREXSFb-12" value="Trapecio" style="text;html=1;strokeColor=none;fillColor=none;align=center;verticalAlign=middle;whiteSpace=wrap;rounded=0;fontSize=19;" vertex="1" parent="1">
          <mxGeometry x="250" y="290" width="60" height="30" as="geometry" />
        </mxCell>
        <mxCell id="Rpb0mkU19RhlqtREXSFb-13" value="" style="endArrow=none;html=1;rounded=0;strokeWidth=5;fontSize=19;" edge="1" parent="1">
          <mxGeometry width="50" height="50" relative="1" as="geometry">
            <mxPoint x="380" y="280" as="sourcePoint" />
            <mxPoint x="420" y="320" as="targetPoint" />
          </mxGeometry>
        </mxCell>
        <mxCell id="Rpb0mkU19RhlqtREXSFb-14" value="Regla Simpson" style="text;html=1;strokeColor=none;fillColor=none;align=center;verticalAlign=middle;whiteSpace=wrap;rounded=0;fontSize=19;" vertex="1" parent="1">
          <mxGeometry x="420" y="320" width="60" height="30" as="geometry" />
        </mxCell>
        <mxCell id="Rpb0mkU19RhlqtREXSFb-15" value="" style="endArrow=none;html=1;rounded=0;strokeWidth=5;fontSize=19;" edge="1" parent="1">
          <mxGeometry width="50" height="50" relative="1" as="geometry">
            <mxPoint x="270" y="360" as="sourcePoint" />
            <mxPoint x="340" y="340" as="targetPoint" />
          </mxGeometry>
        </mxCell>
        <mxCell id="Rpb0mkU19RhlqtREXSFb-16" value="Newton Cotes" style="text;html=1;strokeColor=none;fillColor=none;align=center;verticalAlign=middle;whiteSpace=wrap;rounded=0;fontSize=19;" vertex="1" parent="1">
          <mxGeometry x="240" y="360" width="60" height="30" as="geometry" />
        </mxCell>
      </root>
    </mxGraphModel>
  </diagram>
</mxfile>
